<svg width="1440" height="1024" viewBox="0 0 1440 1024" fill="none" xmlns="http://www.w3.org/2000/svg">
  <rect width="1440" height="1024" fill="#FFFFFF"/>
  <!-- Top Bar -->
  <rect x="32" y="24" width="1376" height="56" rx="8" fill="#F5F5F5" stroke="#DDDDDD"/>
  <text x="48" y="58" font-family="Inter, Arial" font-size="18" fill="#111">도시명 · 턴 3 (2025-03) · 예산 10억 · Normal</text>
  <rect x="1250" y="36" width="72" height="32" rx="6" fill="#EDEDED" stroke="#CCCCCC"/>
  <text x="1273" y="57" font-family="Inter, Arial" font-size="12" fill="#111">저장</text>
  <rect x="1330" y="36" width="72" height="32" rx="6" fill="#EDEDED" stroke="#CCCCCC"/>
  <text x="1353" y="57" font-family="Inter, Arial" font-size="12" fill="#111">설정</text>

  <!-- Left Column: Summary and Details -->
  <rect x="32" y="96" width="688" height="832" rx="10" fill="#FFFFFF" stroke="#DDDDDD"/>
  <!-- City Index Card -->
  <rect x="48" y="112" width="656" height="160" rx="8" fill="#FAFAFA" stroke="#E6E6E6"/>
  <text x="64" y="146" font-family="Inter, Arial" font-size="16" fill="#111">종합 도시 지수: 68 ▲ +2</text>
  <!-- Progress bar -->
  <rect x="64" y="168" width="624" height="16" rx="8" fill="#EEE"/>
  <rect x="64" y="168" width="480" height="16" rx="8" fill="#BDBDBD"/>
  <!-- Details toggle and items -->
  <text x="64" y="214" font-family="Inter, Arial" font-size="14" fill="#111">세부 지표</text>
  <text x="64" y="242" font-family="Inter, Arial" font-size="13" fill="#666">> 경제 · GDP 1000 ▲ +1.8% · 실업률 6.0 ▼ -0.3</text>
  <text x="64" y="268" font-family="Inter, Arial" font-size="13" fill="#666">> 정치 안정도 55 ▼ -1</text>

  <!-- Right Column: Category Cards -->
  <rect x="736" y="96" width="672" height="480" rx="10" fill="#FFFFFF" stroke="#DDDDDD"/>
  <text x="752" y="126" font-family="Inter, Arial" font-size="16" fill="#111">카테고리</text>
  <!-- Six cards grid 3x2 -->
  <rect x="752" y="144" width="320" height="140" rx="8" fill="#FAFAFA" stroke="#E6E6E6"/>
  <text x="768" y="170" font-family="Inter, Arial" font-size="14" fill="#111">경제: 72 ▲ +3</text>
  <rect x="1048" y="144" width="320" height="140" rx="8" fill="#FAFAFA" stroke="#E6E6E6"/>
  <text x="1064" y="170" font-family="Inter, Arial" font-size="14" fill="#111">정치: 58 ▼ -1</text>
  <rect x="752" y="300" width="320" height="140" rx="8" fill="#FAFAFA" stroke="#E6E6E6"/>
  <text x="768" y="326" font-family="Inter, Arial" font-size="14" fill="#111">국방: 51 ▬ ±0</text>
  <rect x="1048" y="300" width="320" height="140" rx="8" fill="#FAFAFA" stroke="#E6E6E6"/>
  <text x="1064" y="326" font-family="Inter, Arial" font-size="14" fill="#111">외교: 64 ▲ +1</text>
  <rect x="752" y="456" width="320" height="140" rx="8" fill="#FAFAFA" stroke="#E6E6E6"/>
  <text x="768" y="482" font-family="Inter, Arial" font-size="14" fill="#111">문화: 55 ▲ +2</text>
  <rect x="1048" y="456" width="320" height="140" rx="8" fill="#FAFAFA" stroke="#E6E6E6"/>
  <text x="1064" y="482" font-family="Inter, Arial" font-size="14" fill="#111">환경: 62 ▼ -2</text>

  <!-- Budget Allocation Panel -->
  <rect x="736" y="592" width="672" height="336" rx="10" fill="#FFFFFF" stroke="#DDDDDD"/>
  <text x="752" y="620" font-family="Inter, Arial" font-size="16" fill="#111">월간 예산 배분</text>
  <text x="752" y="644" font-family="Inter, Arial" font-size="12" fill="#666">세수 10억 · 외부 지원 0.5억 · 잔여금 0.2억</text>
  <!-- Budget Items -->
  <g>
    <text x="752" y="676" font-family="Inter, Arial" font-size="13" fill="#111">국방 15% (1.5억)</text>
    <rect x="900" y="664" width="420" height="12" rx="6" fill="#EEE"/>
    <rect x="900" y="664" width="210" height="12" rx="6" fill="#BDBDBD"/>
  </g>
  <g>
    <text x="752" y="704" font-family="Inter, Arial" font-size="13" fill="#111">외교 10% (1.0억)</text>
    <rect x="900" y="692" width="420" height="12" rx="6" fill="#EEE"/>
    <rect x="900" y="692" width="140" height="12" rx="6" fill="#BDBDBD"/>
  </g>
  <g>
    <text x="752" y="732" font-family="Inter, Arial" font-size="13" fill="#111">경제 30% (3.0억)</text>
    <rect x="900" y="720" width="420" height="12" rx="6" fill="#EEE"/>
    <rect x="900" y="720" width="300" height="12" rx="6" fill="#BDBDBD"/>
  </g>
  <g>
    <text x="752" y="760" font-family="Inter, Arial" font-size="13" fill="#111">정치 15% (1.5억)</text>
    <rect x="900" y="748" width="420" height="12" rx="6" fill="#EEE"/>
    <rect x="900" y="748" width="210" height="12" rx="6" fill="#BDBDBD"/>
  </g>
  <g>
    <text x="752" y="788" font-family="Inter, Arial" font-size="13" fill="#111">문화 15% (1.5억)</text>
    <rect x="900" y="776" width="420" height="12" rx="6" fill="#EEE"/>
    <rect x="900" y="776" width="210" height="12" rx="6" fill="#BDBDBD"/>
  </g>
  <g>
    <text x="752" y="816" font-family="Inter, Arial" font-size="13" fill="#111">환경 15% (1.5억)</text>
    <rect x="900" y="804" width="420" height="12" rx="6" fill="#EEE"/>
    <rect x="900" y="804" width="210" height="12" rx="6" fill="#BDBDBD"/>
  </g>
  <text x="752" y="848" font-family="Inter, Arial" font-size="12" fill="#666">합계 100% · [자동 균형] [초기화]</text>

  <!-- Event log and CTA -->
  <text x="48" y="952" font-family="Inter, Arial" font-size="12" fill="#666">이벤트 로그 ▸ 최근: 무역 협정 체결(외교 +3, 경제 +5)</text>
  <rect x="1200" y="936" width="208" height="48" rx="8" fill="#2F80ED"/>
  <text x="1238" y="965" font-family="Inter, Arial" font-size="16" fill="#FFF">턴 진행 ▶︎</text>
  <text x="992" y="965" font-family="Inter, Arial" font-size="12" fill="#666">예상 변화: 종합 +1~+3 · 리스크: 부채 70%</text>
</svg>

