<svg width="390" height="844" viewBox="0 0 390 844" fill="none" xmlns="http://www.w3.org/2000/svg">
  <rect width="390" height="844" fill="#FFFFFF"/>
  <!-- Header -->
  <text x="16" y="32" font-family="Inter, Arial" font-size="16" fill="#111">도시 지표</text>
  <!-- Summary Card -->
  <rect x="16" y="48" width="358" height="120" rx="10" fill="#FAFAFA" stroke="#E6E6E6"/>
  <text x="32" y="80" font-family="Inter, Arial" font-size="14" fill="#111">종합 도시 지수: 68 ▲ +2</text>
  <rect x="32" y="92" width="322" height="12" rx="6" fill="#EEE"/>
  <rect x="32" y="92" width="240" height="12" rx="6" fill="#BDBDBD"/>

  <!-- Category horizontal scroll (represented as stacked cards) -->
  <rect x="16" y="180" width="358" height="180" rx="10" fill="#FFFFFF" stroke="#DDDDDD"/>
  <text x="32" y="204" font-family="Inter, Arial" font-size="14" fill="#111">카테고리</text>
  <rect x="32" y="220" width="300" height="56" rx="8" fill="#FAFAFA" stroke="#E6E6E6"/>
  <text x="48" y="252" font-family="Inter, Arial" font-size="12" fill="#111">경제: 72 ▲ +3</text>
  <rect x="32" y="284" width="300" height="56" rx="8" fill="#FAFAFA" stroke="#E6E6E6"/>
  <text x="48" y="316" font-family="Inter, Arial" font-size="12" fill="#111">정치: 58 ▼ -1</text>

  <!-- Budget (Accordion-like) -->
  <rect x="16" y="372" width="358" height="300" rx="10" fill="#FFFFFF" stroke="#DDDDDD"/>
  <text x="32" y="396" font-family="Inter, Arial" font-size="14" fill="#111">예산 배분</text>
  <text x="32" y="416" font-family="Inter, Arial" font-size="11" fill="#666">세수 10억 · 외부 0.5억 · 잔여 0.2억</text>
  <text x="32" y="444" font-family="Inter, Arial" font-size="12" fill="#111">경제 30% (3.0억)</text>
  <rect x="32" y="452" width="322" height="10" rx="5" fill="#EEE"/>
  <rect x="32" y="452" width="200" height="10" rx="5" fill="#BDBDBD"/>
  <text x="32" y="476" font-family="Inter, Arial" font-size="12" fill="#111">국방 15% (1.5억)</text>
  <rect x="32" y="484" width="322" height="10" rx="5" fill="#EEE"/>
  <rect x="32" y="484" width="120" height="10" rx="5" fill="#BDBDBD"/>
  <text x="32" y="508" font-family="Inter, Arial" font-size="12" fill="#111">외교 10% (1.0억)</text>
  <rect x="32" y="516" width="322" height="10" rx="5" fill="#EEE"/>
  <rect x="32" y="516" width="80" height="10" rx="5" fill="#BDBDBD"/>
  <text x="32" y="540" font-family="Inter, Arial" font-size="11" fill="#666">합계 100% · 자동 균형 · 초기화</text>

  <!-- Fixed CTA -->
  <rect x="16" y="692" width="358" height="48" rx="8" fill="#2F80ED"/>
  <text x="150" y="722" font-family="Inter, Arial" font-size="16" fill="#FFF">턴 진행 ▶︎</text>
</svg>

