<svg width="1440" height="1024" viewBox="0 0 1440 1024" fill="none" xmlns="http://www.w3.org/2000/svg">
  <rect width="1440" height="1024" fill="#FFFFFF"/>
  <!-- Header -->
  <text x="32" y="56" font-family="Inter, Arial" font-size="20" fill="#111">지표 추이 · 최근 12개월</text>
  <rect x="32" y="72" width="320" height="36" rx="6" fill="#F5F5F5" stroke="#DDDDDD"/>
  <text x="48" y="96" font-family="Inter, Arial" font-size="13" fill="#666">지수: 종합 · 경제 · 정치 · 국방 · 외교 · 문화 · 환경</text>

  <!-- Chart area -->
  <rect x="32" y="128" width="1376" height="560" rx="10" fill="#FFFFFF" stroke="#DDDDDD"/>
  <!-- Simple sparkline-like path (placeholder) -->
  <polyline points="64,640 208,600 352,580 496,520 640,540 784,500 928,460 1072,480 1216,420 1360,400" fill="none" stroke="#BDBDBD" stroke-width="3"/>
  <!-- Y-axis labels -->
  <text x="40" y="160" font-family="Inter, Arial" font-size="12" fill="#666">80</text>
  <text x="40" y="240" font-family="Inter, Arial" font-size="12" fill="#666">70</text>
  <text x="40" y="320" font-family="Inter, Arial" font-size="12" fill="#666">60</text>
  <text x="40" y="400" font-family="Inter, Arial" font-size="12" fill="#666">50</text>
  <line x1="64" y1="168" x2="1376" y2="168" stroke="#EEE"/>
  <line x1="64" y1="248" x2="1376" y2="248" stroke="#EEE"/>
  <line x1="64" y1="328" x2="1376" y2="328" stroke="#EEE"/>
  <line x1="64" y1="408" x2="1376" y2="408" stroke="#EEE"/>

  <!-- X-axis months -->
  <text x="160" y="712" font-family="Inter, Arial" font-size="12" fill="#666">10월</text>
  <text x="304" y="712" font-family="Inter, Arial" font-size="12" fill="#666">11월</text>
  <text x="448" y="712" font-family="Inter, Arial" font-size="12" fill="#666">12월</text>
  <text x="592" y="712" font-family="Inter, Arial" font-size="12" fill="#666">1월</text>
  <text x="736" y="712" font-family="Inter, Arial" font-size="12" fill="#666">2월</text>
  <text x="880" y="712" font-family="Inter, Arial" font-size="12" fill="#666">3월</text>

  <!-- Event timeline -->
  <text x="32" y="780" font-family="Inter, Arial" font-size="16" fill="#111">이벤트 타임라인</text>
  <rect x="32" y="792" width="1376" height="160" rx="10" fill="#FFFFFF" stroke="#DDDDDD"/>
  <rect x="160" y="824" width="216" height="40" rx="8" fill="#FAFAFA" stroke="#E6E6E6"/>
  <text x="176" y="850" font-family="Inter, Arial" font-size="12" fill="#111">11월 · 부패 스캔들 (정치 -10)</text>
  <rect x="720" y="824" width="280" height="40" rx="8" fill="#FAFAFA" stroke="#E6E6E6"/>
  <text x="736" y="850" font-family="Inter, Arial" font-size="12" fill="#111">3월 · 무역 협정 (경제 +5, 외교 +3)</text>
</svg>

